<?xml version="1.0" standalone="no"?>
<!DOCTYPE svg PUBLIC "-//W3C//DTD SVG 20010904//EN"
 "http://www.w3.org/TR/2001/REC-SVG-20010904/DTD/svg10.dtd">
<svg version="1.0" xmlns="http://www.w3.org/2000/svg"
 width="626.000000pt" height="626.000000pt" viewBox="0 0 626.000000 626.000000"
 preserveAspectRatio="xMidYMid meet">
<metadata>
Created by potrace 1.11, written by Peter Selinger 2001-2013
</metadata>
<g transform="translate(0.000000,626.000000) scale(0.100000,-0.100000)"
fill="#000000" stroke="none">
<path d="M2600 6253 c-139 -9 -327 -46 -455 -88 -108 -35 -295 -118 -334 -147
-13 -10 -28 -18 -32 -18 -20 0 -296 -191 -369 -255 -252 -223 -460 -453 -680
-752 -62 -83 -158 -179 -228 -226 -109 -73 -131 -156 -60 -226 48 -47 90 -50
163 -13 77 41 215 162 283 249 265 341 338 428 496 586 137 138 174 171 301
266 220 165 433 267 705 337 78 21 374 29 485 15 134 -17 343 -82 430 -134 11
-6 38 -20 60 -32 148 -75 372 -279 501 -455 90 -123 123 -179 211 -355 25 -49
49 -98 54 -108 11 -21 55 -141 100 -272 31 -90 44 -134 92 -317 62 -231 110
-357 167 -438 25 -35 87 -70 126 -70 40 0 93 37 110 78 18 44 11 98 -16 127
-36 39 -96 203 -145 400 -37 146 -113 390 -141 452 -8 17 -14 34 -14 38 0 13
-70 167 -125 275 -66 130 -103 192 -180 299 -33 45 -70 97 -81 115 -29 41
-224 240 -294 298 -209 173 -498 304 -753 343 -56 8 -129 19 -162 25 -57 9
-115 10 -215 3z"/>
<path d="M2793 5665 c-45 -7 -86 -16 -92 -19 -6 -4 -46 -18 -88 -31 -253 -76
-540 -260 -788 -502 -79 -78 -98 -98 -273 -303 -93 -109 -237 -254 -332 -335
-138 -117 -412 -275 -661 -382 -80 -34 -109 -69 -109 -132 0 -37 6 -49 39 -82
34 -34 45 -39 84 -39 51 0 156 39 264 97 147 79 171 92 253 140 47 27 100 58
119 69 58 33 242 188 340 285 52 52 148 157 215 234 184 214 363 388 491 476
27 19 55 39 63 46 41 38 315 176 374 188 18 3 60 15 93 25 33 10 83 21 110 25
53 7 109 36 124 63 5 10 10 28 11 42 5 60 -1 80 -35 115 -41 40 -61 42 -202
20z"/>
<path d="M3033 5075 c-227 -58 -408 -181 -684 -462 -203 -207 -364 -359 -499
-469 -8 -7 -49 -41 -90 -75 -271 -225 -540 -395 -810 -513 -58 -26 -113 -51
-123 -57 -27 -15 -171 -67 -251 -90 -133 -38 -176 -76 -176 -152 0 -40 35 -96
70 -114 31 -16 80 -16 117 -2 15 6 62 21 103 34 70 22 134 46 285 107 219 90
573 292 737 422 15 11 48 37 75 56 176 129 630 539 771 696 110 124 287 262
412 321 87 42 117 51 198 59 85 8 153 -6 239 -49 120 -59 191 -140 233 -267
32 -94 24 -250 -17 -370 -17 -47 -32 -92 -34 -99 -3 -12 20 -19 101 -32 167
-28 153 -33 183 69 85 278 40 570 -116 752 -130 152 -363 261 -552 259 -48 0
-116 -10 -172 -24z"/>
<path d="M3112 4450 c-26 -11 -43 -30 -182 -204 -178 -222 -404 -444 -650
-637 -146 -116 -439 -320 -527 -369 -21 -12 -56 -32 -78 -44 -260 -151 -603
-324 -785 -396 -30 -12 -89 -35 -130 -52 -41 -16 -104 -39 -139 -51 -35 -12
-79 -35 -98 -52 -30 -26 -36 -38 -40 -80 -5 -65 11 -94 69 -125 l47 -25 103
37 c180 64 223 80 233 88 11 8 202 90 210 90 11 0 366 178 470 236 148 82 287
163 305 178 8 7 48 32 88 55 77 46 115 84 141 141 25 55 109 178 171 251 169
198 430 380 650 453 57 19 70 28 123 91 75 89 139 173 173 226 20 33 25 51 21
79 -12 88 -96 141 -175 110z"/>
<path d="M3390 3848 c-172 -17 -415 -105 -556 -200 -275 -184 -461 -432 -552
-733 -39 -129 -52 -226 -52 -380 0 -157 13 -255 51 -380 65 -213 171 -394 321
-546 138 -140 324 -264 463 -309 22 -7 45 -16 51 -21 5 -5 71 -22 146 -39 119
-26 154 -30 291 -30 131 0 172 4 264 25 120 28 242 70 319 109 29 14 54 26 57
26 3 0 291 -285 640 -634 565 -564 640 -635 682 -650 175 -59 345 57 345 236
0 114 15 97 -656 768 l-614 616 43 64 c66 98 78 119 112 190 101 209 149 473
126 681 -33 289 -108 484 -267 695 -56 74 -190 211 -236 242 -14 9 -57 38 -94
64 -61 41 -133 78 -254 131 -67 29 -226 66 -329 76 -117 12 -179 12 -301 -1z
m335 -342 c237 -42 504 -208 613 -381 14 -22 28 -42 32 -45 22 -16 122 -237
142 -315 32 -125 32 -329 0 -459 -74 -296 -274 -543 -545 -671 -155 -74 -224
-88 -417 -88 -193 0 -262 14 -417 88 -178 84 -326 219 -427 390 -103 174 -136
301 -136 531 0 153 22 250 85 379 75 154 122 221 221 314 191 181 405 267 669
270 55 1 136 -5 180 -13z"/>
<path d="M1875 2599 c-68 -43 -102 -63 -305 -178 -80 -46 -149 -86 -155 -91
-5 -4 -64 -36 -130 -70 -66 -35 -156 -82 -200 -105 -44 -23 -147 -72 -228
-110 -170 -79 -207 -110 -207 -176 0 -79 49 -129 126 -129 48 0 249 91 559
254 45 24 92 50 105 58 14 9 85 49 159 89 74 41 155 86 180 101 25 15 64 37
86 49 22 12 52 31 66 42 l28 20 -1 143 c0 103 -3 144 -11 143 -7 0 -39 -18
-72 -40z"/>
<path d="M1995 1916 c-173 -114 -423 -276 -515 -333 -147 -92 -337 -194 -394
-213 -63 -20 -103 -48 -117 -82 -16 -40 -13 -93 8 -129 16 -28 70 -59 101 -59
56 0 339 138 530 258 112 71 210 134 352 227 85 56 165 107 178 114 30 16 28
30 -12 109 -19 37 -42 84 -51 105 -10 20 -20 37 -24 37 -3 -1 -28 -16 -56 -34z"/>
<path d="M2375 1361 c-22 -16 -73 -50 -114 -77 -85 -57 -222 -150 -262 -179
-15 -11 -109 -78 -209 -150 -342 -245 -367 -268 -356 -333 10 -63 72 -122 128
-122 28 0 84 31 164 91 32 24 75 55 94 68 33 23 85 60 150 106 16 11 88 63
162 115 73 53 144 103 158 113 65 45 279 186 313 206 20 12 37 24 37 25 0 2
-26 21 -57 44 -32 22 -78 59 -103 81 -25 23 -49 41 -55 41 -5 -1 -28 -14 -50
-29z"/>
<path d="M3750 995 c-41 -7 -128 -16 -192 -20 -65 -4 -115 -12 -112 -16 3 -5
26 -21 52 -35 26 -14 74 -41 107 -60 94 -56 205 -111 262 -129 51 -17 53 -16
97 6 47 23 53 31 66 87 17 72 -22 128 -118 165 -48 19 -58 19 -162 2z"/>
<path d="M2680 711 c-125 -28 -278 -125 -480 -303 -196 -173 -230 -213 -230
-270 0 -54 26 -94 76 -118 65 -32 92 -21 203 84 269 255 435 367 521 351 35
-7 126 -42 145 -57 6 -4 60 -41 120 -81 61 -40 152 -102 203 -138 121 -84 150
-99 192 -99 47 0 80 18 107 59 50 74 22 134 -107 223 -211 145 -258 177 -343
230 -156 98 -306 141 -407 119z"/>
</g>
</svg>
