<svg version="1.0" xmlns="http://www.w3.org/2000/svg"
 width="24.000000px" height="24.000000px" viewBox="0 0 24.000000 24.000000"
 preserveAspectRatio="xMidYMid meet">
<metadata>
Created by potrace 1.15, written by Peter Selinger 2001-2017
</metadata>
<g transform="translate(0.000000,24.000000) scale(0.100000,-0.100000)"
fill="#000000" stroke="none">
<path d="M2480 6239 c-152 -23 -203 -34 -300 -65 -274 -86 -519 -224 -774
-435 -49 -40 -369 -361 -403 -404 -50 -63 -86 -106 -119 -145 -16 -19 -50 -62
-75 -95 -111 -148 -140 -183 -190 -232 -56 -53 -158 -133 -171 -133 -15 0 -41
-65 -41 -102 0 -45 23 -82 66 -108 44 -27 64 -25 133 11 111 59 219 163 356
343 85 112 131 168 256 316 84 98 305 315 392 384 209 166 447 298 635 353
164 48 203 54 375 60 178 6 299 -4 396 -31 27 -8 76 -22 108 -31 33 -9 76 -25
95 -34 133 -66 175 -90 251 -140 150 -99 397 -363 486 -519 11 -18 31 -54 46
-80 23 -40 82 -159 134 -267 24 -52 80 -206 112 -310 33 -106 48 -158 108
-375 42 -153 108 -303 154 -349 17 -17 48 -36 70 -42 34 -10 44 -9 85 11 52
25 66 51 67 118 1 31 -5 49 -21 66 -31 33 -67 113 -92 205 -12 42 -34 121 -49
176 -16 55 -38 136 -49 180 -12 44 -26 89 -31 100 -6 11 -19 49 -29 85 -10 36
-28 87 -40 113 -12 27 -21 53 -21 59 0 13 -156 331 -185 378 -97 155 -195 291
-252 351 -24 24 -43 47 -43 50 0 5 -164 156 -231 212 -33 29 -187 126 -244
155 -162 82 -325 134 -509 161 -145 22 -350 26 -456 10z"/>
<path d="M2810 5665 c-92 -15 -237 -57 -305 -89 -27 -13 -60 -27 -73 -31 -36
-11 -180 -93 -267 -153 -204 -141 -367 -293 -555 -517 -178 -214 -397 -420
-545 -516 -62 -40 -96 -60 -220 -129 -83 -46 -198 -103 -270 -133 -87 -36
-125 -75 -125 -129 0 -67 58 -128 121 -128 41 0 167 46 259 95 136 71 348 191
385 217 22 15 51 36 65 46 130 92 364 321 529 519 173 207 397 405 581 515 36
21 72 43 80 48 8 6 31 17 50 26 19 8 53 24 76 34 54 26 229 76 296 85 54 7 84
21 119 56 28 28 26 115 -4 150 -44 52 -66 56 -197 34z"/>
<path d="M3040 5075 c-83 -21 -202 -69 -265 -108 -161 -99 -208 -139 -477
-408 -117 -118 -260 -254 -318 -304 -57 -49 -114 -99 -126 -110 -12 -11 -39
-33 -59 -50 -20 -16 -42 -35 -48 -40 -16 -14 -176 -136 -207 -158 -226 -159
-378 -247 -580 -337 -63 -28 -122 -55 -132 -60 -25 -14 -198 -77 -247 -90 -91
-24 -147 -55 -164 -93 -21 -43 -21 -67 -3 -112 26 -61 112 -94 169 -63 12 6
51 19 87 29 73 20 176 57 265 96 111 48 190 84 209 94 11 6 67 36 125 65 58
30 115 60 126 67 60 36 276 180 310 206 22 17 49 37 60 46 231 176 447 367
704 624 112 113 234 229 270 259 172 142 329 211 476 212 162 0 336 -115 408
-270 27 -57 31 -79 35 -177 4 -107 2 -119 -32 -232 -20 -66 -36 -122 -36 -125
0 -3 15 -6 33 -6 17 0 67 -7 110 -15 119 -23 110 -27 141 78 34 116 46 244 35
369 -23 248 -157 441 -384 553 -174 86 -310 103 -485 60z"/>
<path d="M3115 4450 c-25 -10 -68 -56 -133 -142 -85 -113 -137 -172 -297 -337
-145 -149 -394 -365 -546 -473 -175 -124 -321 -220 -449 -296 -90 -53 -398
-222 -404 -222 -2 0 -66 -30 -142 -66 -77 -36 -157 -74 -180 -85 -22 -10 -44
-19 -49 -19 -4 0 -26 -9 -49 -19 -39 -19 -172 -71 -266 -105 -74 -26 -111 -63
-117 -117 -7 -62 14 -101 72 -129 l45 -22 97 32 c54 18 103 36 108 40 6 4 35
15 65 25 30 10 60 21 65 25 6 4 51 24 100 45 186 77 484 224 640 315 28 16 70
41 95 55 25 14 65 38 90 53 25 15 60 36 78 47 128 77 166 111 201 175 120 220
308 422 522 563 66 44 237 129 294 147 74 24 93 39 190 160 154 191 166 223
118 298 -36 55 -93 75 -148 52z"/>
<path d="M3406 3850 c-201 -19 -428 -105 -613 -232 -93 -64 -236 -203 -302
-293 -28 -38 -56 -75 -61 -82 -5 -6 -30 -53 -55 -105 -25 -51 -50 -100 -55
-109 -18 -34 -69 -227 -79 -302 -14 -101 -14 -295 0 -394 15 -107 63 -260 115
-368 224 -468 680 -755 1199 -755 139 0 176 5 350 50 85 22 145 43 205 74 25
13 55 27 68 31 21 6 93 -63 649 -620 385 -385 642 -634 666 -646 121 -62 277
-14 340 105 29 56 31 174 2 231 -12 26 -235 256 -615 636 -327 328 -603 605
-613 617 -18 20 -18 22 22 75 118 160 199 368 232 594 20 134 21 159 10 263
-29 276 -81 432 -218 643 -59 92 -225 275 -286 316 -14 9 -55 37 -93 63 -64
43 -125 74 -248 127 -51 22 -179 58 -256 71 -77 13 -271 19 -364 10z m326
-345 c192 -33 379 -133 521 -279 33 -33 70 -78 84 -100 15 -23 29 -43 33 -46
4 -3 31 -50 59 -105 86 -166 117 -304 108 -485 -6 -128 -37 -259 -87 -366 -65
-140 -197 -305 -320 -396 -298 -223 -729 -250 -1055 -66 -94 53 -162 107 -238
188 -75 78 -111 130 -158 220 -77 147 -95 215 -108 400 -13 198 9 320 85 472
68 136 124 216 205 296 140 139 317 232 504 267 96 18 265 18 367 0z"/>
<path d="M1920 2627 c-15 -14 -265 -163 -349 -208 -24 -13 -51 -29 -60 -34
-114 -72 -456 -248 -743 -384 -84 -40 -118 -78 -118 -134 0 -46 31 -100 68
-116 39 -18 93 -12 156 18 34 16 88 41 121 56 156 70 554 283 828 443 147 86
132 61 132 227 0 146 -4 161 -35 132z"/>
<path d="M1995 1916 c-89 -59 -444 -290 -525 -341 -130 -82 -271 -157 -428
-226 -62 -27 -82 -57 -82 -125 0 -39 5 -51 33 -79 49 -49 76 -52 166 -21 151
53 440 222 868 507 40 26 86 55 103 64 16 8 30 22 30 30 0 8 -17 47 -37 87
-21 40 -44 88 -51 106 -8 17 -17 32 -20 32 -4 -1 -29 -16 -57 -34z"/>
<path d="M2265 1286 c-226 -154 -328 -226 -492 -346 -18 -14 -66 -47 -106 -75
-40 -27 -74 -52 -77 -55 -3 -3 -31 -24 -62 -48 -87 -64 -110 -130 -69 -198 19
-31 74 -64 108 -64 19 0 94 42 154 88 20 15 115 83 210 152 96 69 188 135 204
147 59 42 460 311 483 322 l23 12 -37 30 c-20 16 -40 29 -43 29 -4 0 -33 25
-66 55 -33 30 -64 55 -70 54 -5 0 -77 -47 -160 -103z"/>
<path d="M3785 1000 c-52 -11 -217 -30 -278 -32 -28 -1 -46 -6 -44 -12 3 -10
86 -61 237 -145 36 -21 98 -49 138 -64 l73 -27 48 21 c54 23 71 49 71 110 0
63 -21 92 -93 127 -66 33 -84 35 -152 22z"/>
<path d="M2705 713 c-138 -18 -364 -166 -600 -392 -118 -114 -135 -137 -135
-185 0 -52 34 -100 86 -122 54 -23 95 -3 198 95 99 95 217 197 256 224 14 9
43 30 65 47 52 39 139 80 170 80 44 0 150 -47 241 -106 49 -31 91 -60 94 -63
3 -3 25 -20 50 -37 25 -16 90 -61 145 -100 95 -65 103 -69 156 -69 63 0 88 15
114 68 18 37 19 57 3 94 -22 48 -18 45 -374 289 -202 137 -349 193 -469 177z"/>
</g>
</svg>
